<svg xmlns="http://www.w3.org/2000/svg" xmlns:xlink="http://www.w3.org/1999/xlink" xml:space="preserve" viewBox="0 0 209.77 188.67"><defs><radialGradient xlink:href="#a" id="e" cx="152.85" cy="85.28" r="38.45" fx="152.85" fy="85.28" gradientTransform="matrix(-3.184 .237 -.116 -1.554 643.8 186.45)" gradientUnits="userSpaceOnUse"/><radialGradient xlink:href="#b" id="c" cx="76.5" cy="132.2" r="76.34" fx="76.5" fy="132.2" gradientTransform="matrix(-2.413 .824 -.335 -.982 305.45 212.16)" gradientUnits="userSpaceOnUse"/><radialGradient xlink:href="#b" id="d" cx="89.86" cy="78.09" r="45.46" fx="89.86" fy="78.09" gradientTransform="matrix(-1.706 .218 -.274 -2.14 264.54 225.64)" gradientUnits="userSpaceOnUse"/><linearGradient id="b"><stop offset="0" stop-color="#00b9ec"/><stop offset="1" stop-color="#0097a8"/></linearGradient><linearGradient id="a"><stop offset="0" stop-color="#ff9b13"/><stop offset="1" stop-color="#a35100"/></linearGradient></defs><g transform="translate(6.59 -47.6)"><path fill="url(#c)" stroke="#000" stroke-linecap="round" stroke-linejoin="round" stroke-width="2" d="M-5.59 157.42c2.6 18.5 10.1 59.76 38.39 71.4 19.4 7.97 59.41 10.92 88.61-5.49 22.1-12.42 28.79-33.87 19.81-56.23-5.66-14.1-24.43-26.44-8.3-37.8l-55.17-3.09c11.48 8.98 12.84 13.26 13.08 17.58 0 0-24.22-7.04-43.95 4.18-13.28 7.54-36.96 6.94-49.54-2.43-1.85 4.3-1.8 8.43 1.35 12.3z"/><circle cx="99.2" cy="101.76" r="44.46" fill="url(#d)" stroke="#000" stroke-linecap="round" stroke-linejoin="round" stroke-width="2" transform="rotate(-4.8)"/><path fill="url(#e)" stroke="#000" stroke-linecap="round" stroke-linejoin="round" stroke-width="2" d="M141.06 90.78c.91 7.82 2.25 18.03-11.92 22.69-1.92.63-2.58 3.4-.88 6.28 8.1 13.73 74.55 16.32 73.91-10.4-.25-10.67-30.83-.51-51.8-23.6 0 0-2.75 0-4.58.63-1.58.54-5.07 1.46-4.73 4.4z"/><path fill="none" stroke="#000" stroke-linecap="round" stroke-linejoin="round" stroke-width="2" d="M177.92 123.66c-23.67 4.02-34.03-2.4-44.27-8.92"/><circle cx="102.96" cy="94.56" r="11.19" transform="rotate(-4.8)"/><circle cx="101.51" cy="89.74" r="2.86" fill="#fff" transform="rotate(-4.8)"/><path fill="none" stroke="#000" stroke-linecap="round" stroke-linejoin="round" stroke-width="2" d="M98.13 77.28c3.55-6.75 9.43-10.89 18.23-7.43"/><path fill="none" stroke="#030000" stroke-linecap="round" stroke-linejoin="round" stroke-width="2" d="M100.24 164.05c5.37 2 3.7 17.25-1.24 26.34-6.43 11.84-17.92 16.99-19.07 13.24-3.48-11.32 4.08-15.3 10.17-27.04-12.74 22.59-27.83 30.6-30.6 27.57-3.9-4.29 1.1-9.87 13.83-26.6-8.97 9.02-12.2 18.7-27.21 22.9-5.06 1.4-8.43 1.81-8.55.14-.38-4.93 13.33-24.13 25.36-29.85 10.7-5.09 30.16-9.36 37.31-6.7z"/></g></svg>